<svg xmlns="http://www.w3.org/2000/svg" viewBox="0 0 834.55 210"><defs><style>.cls-1{fill:#fff;}</style></defs><g id="Layer_2" data-name="Layer 2"><g id="Layer_1-2" data-name="Layer 1"><path class="cls-1" d="M275.19,69.17q11.3,0,17.82,5.36t6.53,16q0,10-6.09,15.85t-16.59,5.85H257.13v26.9H244.86V69.17Zm-18.06,33.09h17.08q13.35,0,13.35-11.48T273.13,79.39h-16Z"/><polygon class="cls-1" points="430.52 139.09 417.37 139.09 410.68 120.53 397.04 81.85 376.14 139.09 363.45 139.09 390.45 69.09 403.52 69.09 430.52 139.09"/><path class="cls-1" d="M529.19,111.29v27.79H517.11V111.29l-26.4-42.12h14.13L523.4,100.1l18.36-30.93H555.5Z"/><polygon class="cls-1" points="703.55 69.17 703.55 139.09 691.87 139.09 691.87 85.17 675.3 127.6 659.95 127.6 642.5 85.17 642.5 139.09 630.91 139.09 630.91 69.17 648.08 69.17 667.84 119.68 686.48 69.17 703.55 69.17"/><polygon class="cls-1" points="799 79.49 799 98.04 834.43 98.04 834.43 107.95 799 107.95 799 128.57 834.55 128.57 834.55 139.07 786.82 139.07 786.82 69.17 834.55 69.17 834.55 79.49 799 79.49"/><path class="cls-1" d="M78.75,210H0V131.25H78.75ZM13.12,196.88h52.5v-52.5H13.12Z"/><path class="cls-1" d="M144.38,144.38H65.62V78.75H0V0H144.38ZM78.75,131.25h52.5V13.12H13.12v52.5H78.75Z"/></g></g></svg>