<svg xmlns="http://www.w3.org/2000/svg" viewBox="0 0 589.69 70"><g id="Layer_2" data-name="Layer 2"><g id="Layer_1-2" data-name="Layer 1"><path d="M30.34.09q11.28,0,17.81,5.35t6.53,16q0,10-6.08,15.86T32,43.09H12.27V70H0V.09ZM12.27,33.17H29.35q13.36,0,13.36-11.48T28.27,10.3h-16Z"/><polygon points="185.66 70 172.51 70 165.82 51.44 152.19 12.76 131.28 70 118.6 70 145.6 0 158.66 0 185.66 70"/><path d="M284.33,42.21V70H272.26V42.21L245.85.09H260L278.54,31,296.9.09h13.74Z"/><polygon points="458.69 0.08 458.69 70 447.02 70 447.02 16.09 430.44 58.51 415.09 58.51 397.65 16.09 397.65 70 386.05 70 386.05 0.08 403.23 0.08 422.99 50.59 441.63 0.08 458.69 0.08"/><polygon points="554.14 10.4 554.14 28.95 589.58 28.95 589.58 38.86 554.14 38.86 554.14 59.48 589.69 59.48 589.69 69.98 541.96 69.98 541.96 0.08 589.69 0.08 589.69 10.4 554.14 10.4"/></g></g></svg>