<svg xmlns="http://www.w3.org/2000/svg" viewBox="0 0 834.34 210"><g id="Layer_2" data-name="Layer 2"><g id="Layer_1-2" data-name="Layer 1"><path d="M144,144H66v-66H0V0H144Zm-66-11.88h54.16V11.89H11.89V66h66Z"/><path d="M77.92,210H0V132.08H77.92Zm-66-11.89H66V144H11.89Z"/><path d="M275,68.26q11.28,0,17.81,5.35t6.53,16q0,10-6.08,15.85t-16.6,5.84H256.92v26.9H244.65V68.26Zm-18.07,33.09H274q13.35,0,13.36-11.49T272.92,78.47h-16Z"/><polygon points="430.31 138.17 417.16 138.17 410.47 119.61 396.83 80.94 375.93 138.17 363.25 138.17 390.25 68.17 403.31 68.17 430.31 138.17"/><path d="M529,110.38v27.78H516.91V110.38L490.5,68.26h14.14l18.55,30.93,18.36-30.93h13.74Z"/><polygon points="703.34 68.25 703.34 138.17 691.67 138.17 691.67 84.26 675.09 126.68 659.74 126.68 642.3 84.26 642.3 138.17 630.7 138.17 630.7 68.25 647.88 68.25 667.63 118.76 686.28 68.25 703.34 68.25"/><polygon points="798.79 78.57 798.79 97.12 834.23 97.12 834.23 107.04 798.79 107.04 798.79 127.66 834.34 127.66 834.34 138.16 786.61 138.16 786.61 68.26 834.34 68.26 834.34 78.57 798.79 78.57"/></g></g></svg>